<mxfile host="Electron" agent="Mozilla/5.0 (Windows NT 10.0; Win64; x64) AppleWebKit/537.36 (KHTML, like Gecko) draw.io/28.2.5 Chrome/138.0.7204.251 Electron/37.6.1 Safari/537.36" version="28.2.5">
  <diagram name="Page-1" id="LAhtYF7YHtVhGCmtUIX4">
    <mxGraphModel dx="174128" dy="129414" grid="1" gridSize="10" guides="1" tooltips="1" connect="1" arrows="1" fold="1" page="1" pageScale="1" pageWidth="827" pageHeight="1169" math="0" shadow="0">
      <root>
        <mxCell id="0" />
        <mxCell id="1" parent="0" />
        <mxCell id="bM8ZvLPbDIaJGup5Jix8-13" style="edgeStyle=orthogonalEdgeStyle;rounded=0;orthogonalLoop=1;jettySize=auto;html=1;" edge="1" parent="1" source="0WbpY5kTpjcK6FuYnr_s-1" target="0WbpY5kTpjcK6FuYnr_s-10">
          <mxGeometry relative="1" as="geometry" />
        </mxCell>
        <mxCell id="0WbpY5kTpjcK6FuYnr_s-1" value="Потребность в разработке /&amp;nbsp;&lt;div&gt;изменении ИС&lt;/div&gt;" style="startEvent;html=1;" parent="1" vertex="1">
          <mxGeometry x="-40" y="170" width="230" height="50" as="geometry" />
        </mxCell>
        <mxCell id="0WbpY5kTpjcK6FuYnr_s-2" value="Менеджер проекта: Сбор требований" style="text;html=1;" parent="1" vertex="1">
          <mxGeometry x="-50" y="70" width="150" height="40" as="geometry" />
        </mxCell>
        <mxCell id="0WbpY5kTpjcK6FuYnr_s-3" value="Аналитик безопасности: Оценка рисков" style="text;html=1;" parent="1" vertex="1">
          <mxGeometry x="-50" y="110" width="220" height="40" as="geometry" />
        </mxCell>
        <mxCell id="0WbpY5kTpjcK6FuYnr_s-4" value="Разработчик: Разработка модуля 1" style="text;html=1;" parent="1" vertex="1">
          <mxGeometry x="225" y="90" width="150" height="40" as="geometry" />
        </mxCell>
        <mxCell id="0WbpY5kTpjcK6FuYnr_s-5" value="Разработчик: Разработка модуля 2" style="text;html=1;" parent="1" vertex="1">
          <mxGeometry x="225" y="120" width="150" height="40" as="geometry" />
        </mxCell>
        <mxCell id="0WbpY5kTpjcK6FuYnr_s-6" value="Тестировщик: Тестирование модуля 1" style="text;html=1;" parent="1" vertex="1">
          <mxGeometry x="420" y="105" width="150" height="40" as="geometry" />
        </mxCell>
        <mxCell id="0WbpY5kTpjcK6FuYnr_s-7" value="Тестировщик: Тестирование модуля 2" style="text;html=1;" parent="1" vertex="1">
          <mxGeometry x="414" y="140" width="150" height="40" as="geometry" />
        </mxCell>
        <mxCell id="0WbpY5kTpjcK6FuYnr_s-8" value="Администратор безопасности:&lt;div&gt;Настройка безопасности&lt;/div&gt;" style="text;html=1;" parent="1" vertex="1">
          <mxGeometry x="650" y="105" width="150" height="40" as="geometry" />
        </mxCell>
        <mxCell id="0WbpY5kTpjcK6FuYnr_s-9" value="Аудитор: Проведение аудита" style="text;html=1;" parent="1" vertex="1">
          <mxGeometry x="860" y="120" width="150" height="40" as="geometry" />
        </mxCell>
        <mxCell id="0WbpY5kTpjcK6FuYnr_s-62" style="edgeStyle=orthogonalEdgeStyle;rounded=0;orthogonalLoop=1;jettySize=auto;html=1;entryX=0.5;entryY=0;entryDx=0;entryDy=0;" parent="1" source="0WbpY5kTpjcK6FuYnr_s-10" target="0WbpY5kTpjcK6FuYnr_s-15" edge="1">
          <mxGeometry relative="1" as="geometry" />
        </mxCell>
        <mxCell id="0WbpY5kTpjcK6FuYnr_s-10" value="Утверждение&amp;nbsp;&lt;div&gt;требований&lt;/div&gt;" style="gateway;html=1;" parent="1" vertex="1">
          <mxGeometry x="240" y="170" width="120" height="50" as="geometry" />
        </mxCell>
        <mxCell id="0WbpY5kTpjcK6FuYnr_s-11" value="Выбор архитектуры" style="gateway;html=1;" parent="1" vertex="1">
          <mxGeometry x="240" y="320" width="120" height="50" as="geometry" />
        </mxCell>
        <mxCell id="bM8ZvLPbDIaJGup5Jix8-5" style="edgeStyle=orthogonalEdgeStyle;rounded=0;orthogonalLoop=1;jettySize=auto;html=1;entryX=0;entryY=0.5;entryDx=0;entryDy=0;" edge="1" parent="1" source="0WbpY5kTpjcK6FuYnr_s-12" target="0WbpY5kTpjcK6FuYnr_s-18">
          <mxGeometry relative="1" as="geometry" />
        </mxCell>
        <mxCell id="0WbpY5kTpjcK6FuYnr_s-12" value="Успешное&lt;div&gt;&amp;nbsp;тестирование&lt;/div&gt;" style="gateway;html=1;" parent="1" vertex="1">
          <mxGeometry x="420" y="250" width="130" height="50" as="geometry" />
        </mxCell>
        <mxCell id="bM8ZvLPbDIaJGup5Jix8-8" value="" style="edgeStyle=orthogonalEdgeStyle;rounded=0;orthogonalLoop=1;jettySize=auto;html=1;" edge="1" parent="1" source="0WbpY5kTpjcK6FuYnr_s-13" target="0WbpY5kTpjcK6FuYnr_s-19">
          <mxGeometry relative="1" as="geometry" />
        </mxCell>
        <mxCell id="0WbpY5kTpjcK6FuYnr_s-13" value="Одобрение аудита" style="gateway;html=1;" parent="1" vertex="1">
          <mxGeometry x="860" y="240" width="150" height="50" as="geometry" />
        </mxCell>
        <mxCell id="bM8ZvLPbDIaJGup5Jix8-10" value="" style="edgeStyle=orthogonalEdgeStyle;rounded=0;orthogonalLoop=1;jettySize=auto;html=1;" edge="1" parent="1" source="0WbpY5kTpjcK6FuYnr_s-14" target="0WbpY5kTpjcK6FuYnr_s-27">
          <mxGeometry relative="1" as="geometry" />
        </mxCell>
        <mxCell id="0WbpY5kTpjcK6FuYnr_s-14" value="Решение о&amp;nbsp;&lt;div&gt;мониторинге&lt;/div&gt;" style="gateway;html=1;" parent="1" vertex="1">
          <mxGeometry x="1092" y="170" width="149" height="50" as="geometry" />
        </mxCell>
        <mxCell id="bM8ZvLPbDIaJGup5Jix8-12" style="edgeStyle=orthogonalEdgeStyle;rounded=0;orthogonalLoop=1;jettySize=auto;html=1;entryX=0;entryY=0.5;entryDx=0;entryDy=0;" edge="1" parent="1" source="0WbpY5kTpjcK6FuYnr_s-15" target="0WbpY5kTpjcK6FuYnr_s-16">
          <mxGeometry relative="1" as="geometry" />
        </mxCell>
        <mxCell id="0WbpY5kTpjcK6FuYnr_s-15" value="Параллельная&lt;div&gt;&amp;nbsp;разработка&lt;/div&gt;" style="parallelGateway;html=1;" parent="1" vertex="1">
          <mxGeometry x="240" y="250" width="120" height="50" as="geometry" />
        </mxCell>
        <mxCell id="bM8ZvLPbDIaJGup5Jix8-4" style="edgeStyle=orthogonalEdgeStyle;rounded=0;orthogonalLoop=1;jettySize=auto;html=1;entryX=0.5;entryY=0;entryDx=0;entryDy=0;" edge="1" parent="1" source="0WbpY5kTpjcK6FuYnr_s-16" target="0WbpY5kTpjcK6FuYnr_s-12">
          <mxGeometry relative="1" as="geometry" />
        </mxCell>
        <mxCell id="0WbpY5kTpjcK6FuYnr_s-16" value="Параллельное&amp;nbsp;&lt;div&gt;тестирование&lt;/div&gt;" style="parallelGateway;html=1;" parent="1" vertex="1">
          <mxGeometry x="420" y="170" width="130" height="50" as="geometry" />
        </mxCell>
        <mxCell id="0WbpY5kTpjcK6FuYnr_s-17" value="Параллельная&amp;nbsp;&lt;div&gt;настройка&lt;/div&gt;" style="parallelGateway;html=1;" parent="1" vertex="1">
          <mxGeometry x="653.5" y="240" width="146.5" height="50" as="geometry" />
        </mxCell>
        <mxCell id="bM8ZvLPbDIaJGup5Jix8-6" style="edgeStyle=orthogonalEdgeStyle;rounded=0;orthogonalLoop=1;jettySize=auto;html=1;entryX=0;entryY=0.5;entryDx=0;entryDy=0;" edge="1" parent="1" source="0WbpY5kTpjcK6FuYnr_s-18" target="0WbpY5kTpjcK6FuYnr_s-26">
          <mxGeometry relative="1" as="geometry" />
        </mxCell>
        <mxCell id="0WbpY5kTpjcK6FuYnr_s-18" value="Параллельная&amp;nbsp;&lt;div&gt;проверка&lt;/div&gt;" style="parallelGateway;html=1;" parent="1" vertex="1">
          <mxGeometry x="653.5" y="170" width="143" height="50" as="geometry" />
        </mxCell>
        <mxCell id="bM8ZvLPbDIaJGup5Jix8-9" style="edgeStyle=orthogonalEdgeStyle;rounded=0;orthogonalLoop=1;jettySize=auto;html=1;entryX=0;entryY=0.5;entryDx=0;entryDy=0;" edge="1" parent="1" source="0WbpY5kTpjcK6FuYnr_s-19" target="0WbpY5kTpjcK6FuYnr_s-14">
          <mxGeometry relative="1" as="geometry" />
        </mxCell>
        <mxCell id="0WbpY5kTpjcK6FuYnr_s-19" value="Параллельная&amp;nbsp;&lt;div&gt;отчётность&lt;/div&gt;" style="parallelGateway;html=1;" parent="1" vertex="1">
          <mxGeometry x="860" y="320" width="150" height="50" as="geometry" />
        </mxCell>
        <mxCell id="0WbpY5kTpjcK6FuYnr_s-20" value="Требования к&amp;nbsp;&lt;div&gt;безопасности&lt;/div&gt;" style="dataObject;html=1;" parent="1" vertex="1">
          <mxGeometry x="240" y="390" width="120" height="50" as="geometry" />
        </mxCell>
        <mxCell id="0WbpY5kTpjcK6FuYnr_s-21" value="Код программы" style="dataObject;html=1;" parent="1" vertex="1">
          <mxGeometry x="240" y="460" width="120" height="60" as="geometry" />
        </mxCell>
        <mxCell id="0WbpY5kTpjcK6FuYnr_s-22" value="Отчёты о&amp;nbsp;&lt;div&gt;тестировании&lt;/div&gt;" style="dataObject;html=1;" parent="1" vertex="1">
          <mxGeometry x="420" y="320" width="130" height="50" as="geometry" />
        </mxCell>
        <mxCell id="0WbpY5kTpjcK6FuYnr_s-23" value="Логи мониторинга" style="dataObject;html=1;" parent="1" vertex="1">
          <mxGeometry x="1091" y="395" width="150" height="40" as="geometry" />
        </mxCell>
        <mxCell id="0WbpY5kTpjcK6FuYnr_s-24" value="Оценка рисков" style="subprocess;html=1;" parent="1" vertex="1">
          <mxGeometry x="860" y="400" width="150" height="60" as="geometry" />
        </mxCell>
        <mxCell id="0WbpY5kTpjcK6FuYnr_s-25" value="Разработка документации" style="subprocess;html=1;" parent="1" vertex="1">
          <mxGeometry y="250" width="150" height="50" as="geometry" />
        </mxCell>
        <mxCell id="bM8ZvLPbDIaJGup5Jix8-7" style="edgeStyle=orthogonalEdgeStyle;rounded=0;orthogonalLoop=1;jettySize=auto;html=1;" edge="1" parent="1" source="0WbpY5kTpjcK6FuYnr_s-26" target="0WbpY5kTpjcK6FuYnr_s-13">
          <mxGeometry relative="1" as="geometry" />
        </mxCell>
        <mxCell id="0WbpY5kTpjcK6FuYnr_s-26" value="Проведение аудита" style="subprocess;html=1;" parent="1" vertex="1">
          <mxGeometry x="860" y="170" width="150" height="50" as="geometry" />
        </mxCell>
        <mxCell id="bM8ZvLPbDIaJGup5Jix8-11" value="" style="edgeStyle=orthogonalEdgeStyle;rounded=0;orthogonalLoop=1;jettySize=auto;html=1;" edge="1" parent="1" source="0WbpY5kTpjcK6FuYnr_s-27" target="0WbpY5kTpjcK6FuYnr_s-28">
          <mxGeometry relative="1" as="geometry" />
        </mxCell>
        <mxCell id="0WbpY5kTpjcK6FuYnr_s-27" value="Настройка мониторинга" style="subprocess;html=1;" parent="1" vertex="1">
          <mxGeometry x="1091" y="240" width="150" height="50" as="geometry" />
        </mxCell>
        <mxCell id="0WbpY5kTpjcK6FuYnr_s-28" value="Постоянный мониторинг&lt;div&gt;&amp;nbsp;ИС&lt;/div&gt;" style="endEvent;html=1;" parent="1" vertex="1">
          <mxGeometry x="1092" y="320" width="149" height="50" as="geometry" />
        </mxCell>
        <mxCell id="0WbpY5kTpjcK6FuYnr_s-29" style="edge;html=1;" parent="1" source="0WbpY5kTpjcK6FuYnr_s-1" target="0WbpY5kTpjcK6FuYnr_s-2" edge="1" />
        <mxCell id="0WbpY5kTpjcK6FuYnr_s-30" style="edge;html=1;" parent="1" source="0WbpY5kTpjcK6FuYnr_s-2" target="0WbpY5kTpjcK6FuYnr_s-3" edge="1" />
        <mxCell id="0WbpY5kTpjcK6FuYnr_s-31" style="edge;html=1;" parent="1" source="0WbpY5kTpjcK6FuYnr_s-3" target="0WbpY5kTpjcK6FuYnr_s-10" edge="1" />
        <mxCell id="0WbpY5kTpjcK6FuYnr_s-32" style="edge;html=1;" parent="1" source="0WbpY5kTpjcK6FuYnr_s-10" target="0WbpY5kTpjcK6FuYnr_s-15" edge="1" />
        <mxCell id="0WbpY5kTpjcK6FuYnr_s-33" style="edge;html=1;" parent="1" source="0WbpY5kTpjcK6FuYnr_s-15" target="0WbpY5kTpjcK6FuYnr_s-4" edge="1" />
        <mxCell id="0WbpY5kTpjcK6FuYnr_s-34" style="edge;html=1;" parent="1" source="0WbpY5kTpjcK6FuYnr_s-15" target="0WbpY5kTpjcK6FuYnr_s-5" edge="1" />
        <mxCell id="0WbpY5kTpjcK6FuYnr_s-35" style="edge;html=1;" parent="1" source="0WbpY5kTpjcK6FuYnr_s-4" target="0WbpY5kTpjcK6FuYnr_s-16" edge="1" />
        <mxCell id="0WbpY5kTpjcK6FuYnr_s-36" style="edge;html=1;" parent="1" source="0WbpY5kTpjcK6FuYnr_s-5" target="0WbpY5kTpjcK6FuYnr_s-16" edge="1" />
        <mxCell id="0WbpY5kTpjcK6FuYnr_s-37" style="edge;html=1;" parent="1" source="0WbpY5kTpjcK6FuYnr_s-16" target="0WbpY5kTpjcK6FuYnr_s-6" edge="1" />
        <mxCell id="0WbpY5kTpjcK6FuYnr_s-38" style="edge;html=1;" parent="1" source="0WbpY5kTpjcK6FuYnr_s-16" target="0WbpY5kTpjcK6FuYnr_s-7" edge="1" />
        <mxCell id="0WbpY5kTpjcK6FuYnr_s-39" style="edge;html=1;" parent="1" source="0WbpY5kTpjcK6FuYnr_s-6" target="0WbpY5kTpjcK6FuYnr_s-17" edge="1" />
        <mxCell id="0WbpY5kTpjcK6FuYnr_s-40" style="edge;html=1;" parent="1" source="0WbpY5kTpjcK6FuYnr_s-7" target="0WbpY5kTpjcK6FuYnr_s-17" edge="1" />
        <mxCell id="0WbpY5kTpjcK6FuYnr_s-41" style="edge;html=1;" parent="1" source="0WbpY5kTpjcK6FuYnr_s-17" target="0WbpY5kTpjcK6FuYnr_s-8" edge="1" />
        <mxCell id="0WbpY5kTpjcK6FuYnr_s-42" style="edge;html=1;" parent="1" source="0WbpY5kTpjcK6FuYnr_s-8" target="0WbpY5kTpjcK6FuYnr_s-18" edge="1" />
        <mxCell id="0WbpY5kTpjcK6FuYnr_s-43" style="edge;html=1;" parent="1" source="0WbpY5kTpjcK6FuYnr_s-18" target="0WbpY5kTpjcK6FuYnr_s-9" edge="1" />
        <mxCell id="0WbpY5kTpjcK6FuYnr_s-44" style="edge;html=1;" parent="1" source="0WbpY5kTpjcK6FuYnr_s-9" target="0WbpY5kTpjcK6FuYnr_s-13" edge="1" />
        <mxCell id="0WbpY5kTpjcK6FuYnr_s-45" style="edge;html=1;" parent="1" source="0WbpY5kTpjcK6FuYnr_s-13" target="0WbpY5kTpjcK6FuYnr_s-19" edge="1" />
        <mxCell id="0WbpY5kTpjcK6FuYnr_s-46" style="edge;html=1;" parent="1" source="0WbpY5kTpjcK6FuYnr_s-19" target="0WbpY5kTpjcK6FuYnr_s-14" edge="1" />
        <mxCell id="0WbpY5kTpjcK6FuYnr_s-47" style="edge;html=1;" parent="1" source="0WbpY5kTpjcK6FuYnr_s-14" target="0WbpY5kTpjcK6FuYnr_s-27" edge="1" />
        <mxCell id="0WbpY5kTpjcK6FuYnr_s-48" style="edge;html=1;" parent="1" source="0WbpY5kTpjcK6FuYnr_s-27" target="0WbpY5kTpjcK6FuYnr_s-28" edge="1" />
        <mxCell id="0WbpY5kTpjcK6FuYnr_s-49" value="Интеграция кода" style="text;html=1;" parent="1" vertex="1">
          <mxGeometry x="-240" y="450" width="150" height="40" as="geometry" />
        </mxCell>
        <mxCell id="0WbpY5kTpjcK6FuYnr_s-50" value="Проверка кода" style="text;html=1;" parent="1" vertex="1">
          <mxGeometry x="-240" y="490" width="150" height="40" as="geometry" />
        </mxCell>
        <mxCell id="0WbpY5kTpjcK6FuYnr_s-51" value="Подготовка отчёта" style="text;html=1;" parent="1" vertex="1">
          <mxGeometry x="-240" y="530" width="150" height="40" as="geometry" />
        </mxCell>
        <mxCell id="0WbpY5kTpjcK6FuYnr_s-52" value="Запуск системы" style="text;html=1;" parent="1" vertex="1">
          <mxGeometry x="-240" y="575" width="150" height="40" as="geometry" />
        </mxCell>
        <mxCell id="0WbpY5kTpjcK6FuYnr_s-53" value="Анализ логов" style="text;html=1;" parent="1" vertex="1">
          <mxGeometry x="-240" y="620" width="150" height="40" as="geometry" />
        </mxCell>
        <mxCell id="0WbpY5kTpjcK6FuYnr_s-54" style="edge;html=1;" parent="1" source="0WbpY5kTpjcK6FuYnr_s-4" target="0WbpY5kTpjcK6FuYnr_s-49" edge="1" />
        <mxCell id="0WbpY5kTpjcK6FuYnr_s-55" style="edge;html=1;" parent="1" source="0WbpY5kTpjcK6FuYnr_s-49" target="0WbpY5kTpjcK6FuYnr_s-50" edge="1" />
        <mxCell id="0WbpY5kTpjcK6FuYnr_s-56" style="edge;html=1;" parent="1" source="0WbpY5kTpjcK6FuYnr_s-50" target="0WbpY5kTpjcK6FuYnr_s-51" edge="1" />
        <mxCell id="0WbpY5kTpjcK6FuYnr_s-57" style="edge;html=1;" parent="1" source="0WbpY5kTpjcK6FuYnr_s-51" target="0WbpY5kTpjcK6FuYnr_s-52" edge="1" />
        <mxCell id="0WbpY5kTpjcK6FuYnr_s-58" style="edge;html=1;" parent="1" source="0WbpY5kTpjcK6FuYnr_s-52" target="0WbpY5kTpjcK6FuYnr_s-53" edge="1" />
        <mxCell id="0WbpY5kTpjcK6FuYnr_s-59" style="edge;html=1;" parent="1" source="0WbpY5kTpjcK6FuYnr_s-53" target="0WbpY5kTpjcK6FuYnr_s-14" edge="1" />
      </root>
    </mxGraphModel>
  </diagram>
</mxfile>
